<svg xmlns="http://www.w3.org/2000/svg" width="60" height="60" viewBox="0 0 60 60"><defs><style>.cls-1 { fill: #fff; fill-rule: evenodd; }</style></defs><path class="cls-1" d="M552 41a1 1 0 0 0 1-1v-1c0-1.126.393-11 14-11 9.918 0 12 5.982 12 11v4a1 1 0 0 0 1 1 1 1 0 0 1 1 1v4a1 1 0 0 1-1 1 1 1 0 0 0-1 1 13.349 13.349 0 0 1-.718 4.161 39.151 39.151 0 0 1-8.47.829 3 3 0 1 0 .006 2c6.5-.074 9.375-1 9.5-1.044a1 1 0 0 0 .579-.5 12.975 12.975 0 0 0 1.071-4.607 3.005 3.005 0 0 0 2.032-2.839v-4a3.005 3.005 0 0 0-2-2.829v-3.171c0-8.262-5.1-13-14-13-12.63 0-16 8.171-16 13v1a1 1 0 0 0 1 1zm15 17a1 1 0 1 1 1-1 1 1 0 0 1-1 1zm-13.966-6.16a12.975 12.975 0 0 0 1.071 4.607 1 1 0 0 0 1.79-.895 12.44 12.44 0 0 1-.895-4.552 1 1 0 0 0-1-1 1 1 0 0 1-1-1v-4a1 1 0 0 1 .284-.7 2.8 2.8 0 0 0 2.716 1.7 1 1 0 0 0 .895-.553c.83-1.661.543-4.129.29-6.307l-.075-.652c4.624 1.367 13.332 1.357 17.89-.033v4.545a1 1 0 0 0 2 0v-6a1 1 0 0 0-1.447-.895c-3.75 1.875-15.356 1.875-19.106 0a1 1 0 0 0-1.447.895 22.421 22.421 0 0 0 .2 2.371 16.74 16.74 0 0 1 .144 4.438 1.02 1.02 0 0 1-.344-.809 1 1 0 0 0-1-1 3 3 0 0 0-3 3v4a3.005 3.005 0 0 0 2.034 2.84zm11.966-4.84a1 1 0 0 0-1-1h-4a1 1 0 0 0 0 2h1a1 1 0 0 0 2 0h1a1 1 0 0 0 1-1zm5 1h1a1 1 0 0 0 2 0h1a1 1 0 0 0 0-2h-4a1 1 0 0 0 0 2zm-3-28a26.039 26.039 0 0 0-24 16.007v-10.191a3 3 0 1 0-2 0v20.184a25.882 25.882 0 0 0 6 16.593v7.893a1 1 0 0 0 .386.79 31.967 31.967 0 0 0 39.228 0 1 1 0 0 0 .386-.79v-7.893a25.985 25.985 0 0 0-20-42.593zm-25 4a1 1 0 1 1 1-1 1 1 0 0 1-1 1zm43 45.992a29.967 29.967 0 0 1-36 0v-5.257a25.931 25.931 0 0 0 36 0v5.257zm.42-8.627a.985.985 0 0 0-.312.359 23.409 23.409 0 1 1 .312-.359zm.38-4.965a1 1 0 0 0-1.4-.2c-.077.058-7.844 5.8-17.4 5.8-9.532 0-17.323-5.743-17.4-5.8a1 1 0 0 0-1.2 1.6c.337.253 8.384 6.2 18.6 6.2s18.263-5.947 18.6-6.2a1 1 0 0 0 .2-1.4zm-42.247 13.706c-.268.133-6.553 3.34-6.553 8.894a1 1 0 0 0 2 0c0-4.312 5.394-7.079 5.448-7.106a1 1 0 0 0-.895-1.788zm46.894 0a1 1 0 0 0-.895 1.788c.054.027 5.448 2.794 5.448 7.106a1 1 0 0 0 2 0c0-5.554-6.285-8.761-6.553-8.894z" transform="translate(-537 -20)"/></svg>