<svg xmlns="http://www.w3.org/2000/svg" width="60" height="60" viewBox="0 0 60 60"><defs><style>.cls-1 { fill: #fff; fill-rule: evenodd; }</style></defs><path class="cls-1" d="M571 429.111v-14.111a4 4 0 0 0-8 0v14.111c-10.3.563-20 3.287-20 7.889 0 4.718 10.017 7.363 19.943 7.892a1.027 1.027 0 0 0 1.052-.945 1 1 0 0 0-.946-1.052c-11.149-.595-18.049-3.522-18.049-5.895 0-2.5 8.369-6 22-6s22 3.5 22 6c0 2.376-6.914 5.307-18.083 5.9a1 1 0 0 0 .052 2h.054c9.944-.531 19.977-3.177 19.977-7.9 0-4.6-9.7-7.326-20-7.889zm-2-.082c-.667-.019-1.335-.029-2-.029s-1.333.01-2 .029v-14.029a2 2 0 0 1 4 0v14.029zm11.282 34.271a18.394 18.394 0 0 1-13.282 5.7 18.03 18.03 0 0 1-13.272-5.686 1 1 0 1 0-1.456 1.372 20.016 20.016 0 0 0 14.728 6.314 20.381 20.381 0 0 0 14.718-6.3 1 1 0 1 0-1.436-1.4zm-23.888-4.112a1 1 0 0 0 0 1.414 15 15 0 0 0 21.212 0 1 1 0 0 0-1.414-1.414 13 13 0 0 1-18.384 0 1 1 0 0 0-1.414.004zm4.243-4.242a1 1 0 0 0 0 1.414 9 9 0 0 0 12.726 0 1 1 0 0 0-1.414-1.414 7 7 0 0 1-9.9 0 1 1 0 0 0-1.412.004zm6.363-18.946a1 1 0 0 0-1 1v10.184a3 3 0 1 0 2 0v-10.184a1 1 0 0 0-1-1zm0 15a1 1 0 1 1 1-1 1 1 0 0 1-1 1zm-8-29v-3h1a1 1 0 0 0 0-2h-1v-5a1 1 0 0 0-1-1h-20a1 1 0 0 0-1 1v10a1 1 0 0 0 1 1h20a1 1 0 0 0 1-1zm-2-1h-18v-8h18v8zm39-10h-20a1 1 0 0 0-1 1v5h-1a1 1 0 0 0 0 2h1v3a1 1 0 0 0 1 1h20a1 1 0 0 0 1-1v-10a1 1 0 0 0-1-1zm-1 10h-18v-8h18v8z" transform="translate(-537 -411)"/></svg>