<svg xmlns="http://www.w3.org/2000/svg" width="48" height="59.906" viewBox="0 0 48 59.906"><defs><style>.cls-1 { fill: #fff; fill-rule: evenodd; }</style></defs><path class="cls-1" d="M558 196.023a1 1 0 0 0 1-1v-27.954a18.133 18.133 0 0 1 3.412-9.773 13.731 13.731 0 0 0 9.172 0 18.259 18.259 0 0 1 3.416 9.773v27.956a1 1 0 0 0 2 0v-27.956a19.424 19.424 0 0 0-5.293-12.687l-4-3.994a1 1 0 0 0-1.414 0l-4 3.994a19.424 19.424 0 0 0-5.293 12.687v27.956a1 1 0 0 0 1 .998zm9-43.517l3.159 3.153a11.929 11.929 0 0 1-6.319 0zm4 15.561a4 4 0 1 0-4 3.994 4 4 0 0 0 4-3.994zm-4 2a2 2 0 1 1 2-2 2 2 0 0 1-2 1.997zm17.925 17.315l-1.925-.962v-7.37a3 3 0 0 0-3-3 1 1 0 1 0 0 2 1 1 0 0 1 1 1v7.987a1 1 0 0 0 .553.893l2.488 1.24c1.609.792 4.959 2.439 4.959 3.858v4.992h-11a1.01 1.01 0 0 0-.705.29 16.16 16.16 0 0 1-20.588 0 1 1 0 0 0-.707-.29h-11v-4.992c0-1.419 3.35-3.066 4.959-3.858l2.488-1.24a1 1 0 0 0 .553-.893v-7.987a1 1 0 0 1 1-1 1 1 0 1 0 0-2 3 3 0 0 0-3 3v7.37l-1.925.959c-2.419 1.19-6.075 2.988-6.075 5.649v5.99a1 1 0 0 0 1 1h11.612a18.232 18.232 0 0 0 22.776 0h11.612a1 1 0 0 0 1-1v-5.99c0-2.661-3.656-4.459-6.075-5.649zm-18.925-6.335v17.971a1 1 0 0 0 2 0v-17.971a1 1 0 0 0-2 0zm-12 20.967a1 1 0 0 0-1 1v3.994a1 1 0 0 0 2 0v-3.994a1 1 0 0 0-1-1zm-4 0a1 1 0 0 0-1 1v5.986a1 1 0 0 0 2 0v-5.991a1 1 0 0 0-1-.995zm30 0a1 1 0 0 0-1 1v3.994a1 1 0 0 0 2 0v-3.994a1 1 0 0 0-1-1zm8 0a1 1 0 0 0-1 1v2a1 1 0 0 0 2 0v-2a1 1 0 0 0-1-1zm-42 0a1 1 0 0 0-1 1v2a1 1 0 0 0 2 0v-2a1 1 0 0 0-1-1zm38 0a1 1 0 0 0-1 1v5.986a1 1 0 0 0 2 0v-5.991a1 1 0 0 0-1-.995z" transform="translate(-543 -150.094)"/></svg>