<svg xmlns="http://www.w3.org/2000/svg" width="59.969" height="59.969" viewBox="0 0 59.969 59.969"><defs><style>.cls-1 { fill: #fff; fill-rule: evenodd; }</style></defs><path class="cls-1" d="M580.9 308.387a1 1 0 1 0-1.986.228 12.348 12.348 0 0 1 .086 1.385 12.015 12.015 0 0 1-11.43 11.986 6.338 6.338 0 0 1-.624-4.67c.185-.556.575-.653 1.816-.694 1.128-.036 3.238-.107 3.238-2.622a3.228 3.228 0 0 0-2.253-3.273c-.725-.327-.747-.379-.747-.727 0-1.937.538-3.256 1.645-4.033 2.718-1.909 7.962-.045 8.016-.027a1 1 0 0 0 1.267-1.318 13.965 13.965 0 0 0-20.186-6.571.983.983 0 0 0-.475.289 13.992 13.992 0 0 0 2.351 24.588 1 1 0 0 0 .77-1.846 11.973 11.973 0 0 1-7.395-11.082 12.308 12.308 0 0 1 .063-1.236 4.192 4.192 0 0 0 .6.2.966.966 0 0 0 .277.031 4.35 4.35 0 0 0 3.364-1.291 2.111 2.111 0 0 1 1.772-.709 2.658 2.658 0 0 0 2.474-1.992c.484-1.453.23-3.715-1.787-5.787a11.985 11.985 0 0 1 15.312 4.226c-2.138-.432-5.333-.687-7.572.88-1.659 1.162-2.5 3.071-2.5 5.673a2.659 2.659 0 0 0 1.924 2.55 1.3 1.3 0 0 1 1.08 1.455c0 .524 0 .579-1.3.623-1.118.038-2.992.1-3.645 2.06-1.142 3.425 1.024 6.732 1.116 6.871a1 1 0 0 0 .829.446 14 14 0 0 0 13.9-15.613zm-19.26-4.009a.785.785 0 0 1-.576.624 4.031 4.031 0 0 0-3.12 1.231 2.348 2.348 0 0 1-1.91.769 1.656 1.656 0 0 1-.575-.292 12.027 12.027 0 0 1 4.507-6.417c1.817 1.64 1.934 3.307 1.678 4.085zm.35 4.624c-1.029 0-1.845 1.073-2.241 1.713-.77 1.247-1.4 3.234-.654 4.734a1.972 1.972 0 0 0 1.743 1.227 1.86 1.86 0 0 0 .432-.052c1.448-.342 2.72-2.5 2.72-3.622.004-1.302.004-4.002-1.996-4.002zm-1.067 5.624l-.039-.071a2.509 2.509 0 0 1 .094-1.8 4.737 4.737 0 0 1 .887-1.549 8.692 8.692 0 0 1 .125 1.783 3.289 3.289 0 0 1-1.063 1.637zm-15.3-9.8c-.1.407-.162.822-.238 1.236a3.993 3.993 0 1 0 4.6 3.939 3.932 3.932 0 0 0-.075-.735l-.072-.281a3.91 3.91 0 0 0-.128-.411l-.137-.306-.183-.337-.194-.292-.078-.116a.708.708 0 0 0-.059-.05 4.063 4.063 0 0 0-.348-.382.192.192 0 0 0-.013-.017l-.1-.072a3.953 3.953 0 0 0-.519-.39l-.065-.035a3.9 3.9 0 0 0-.658-.316c.062-.323.131-.646.207-.966a1 1 0 1 0-1.932-.468zm.492 3.189l.024.007a2.025 2.025 0 0 1 1.2.523h.006a2.077 2.077 0 0 1 .5.762l.031.1a1.952 1.952 0 0 1 .1.59 2 2 0 1 1-2-2l.147.019zm2.191 11.6a1 1 0 0 0 .5-1.325c-.264-.579-.5-1.174-.706-1.769a1 1 0 1 0-1.891.651c.224.655.486 1.31.776 1.947a1 1 0 0 0 1.329.493zm2.431 2.024a1 1 0 1 0-1.627 1.163 22.117 22.117 0 0 0 2.794 3.2 1 1 0 0 0 1.375-1.453 20.124 20.124 0 0 1-2.534-2.913zm4.653-30.325a22.191 22.191 0 0 0-3.375 2.586 1 1 0 1 0 1.364 1.463 20.054 20.054 0 0 1 3.07-2.352 1 1 0 0 0-1.049-1.7zm19.624.368a19.979 19.979 0 0 1 3.374 1.888 1 1 0 1 0 1.141-1.642 21.975 21.975 0 0 0-3.712-2.078 1 1 0 0 0-.795 1.829zm-8.486-2.695a1 1 0 0 0 .974 1.025 20.108 20.108 0 0 1 3.838.469 1.011 1.011 0 0 0 .218.024 1 1 0 0 0 .216-1.976 22.113 22.113 0 0 0-4.221-.516.961.961 0 0 0-1.017.971zm19.567 12.23a1 1 0 0 0-.553 1.3 20.036 20.036 0 0 1 1.092 3.707 1 1 0 0 0 .981.812 1.107 1.107 0 0 0 .189-.017 1 1 0 0 0 .795-1.171 21.98 21.98 0 0 0-1.2-4.08 1 1 0 0 0-1.299-.554zm-26.891-11.791a1 1 0 1 0 .709 1.87 19.807 19.807 0 0 1 3.731-1.011 1 1 0 1 0-.332-1.972 21.825 21.825 0 0 0-4.1 1.11zm-11.673 12.653a1 1 0 0 0 1.328-.485 20.105 20.105 0 0 1 1.959-3.334 1 1 0 0 0-1.62-1.174 22.138 22.138 0 0 0-2.153 3.665 1 1 0 0 0 .494 1.325zm12.252 26.586a19.864 19.864 0 0 1-3.452-1.739 1 1 0 0 0-1.068 1.691 21.873 21.873 0 0 0 3.8 1.913 1 1 0 1 0 .728-1.868zm21.555-32.593a20.1 20.1 0 0 1 2.414 3.02 1 1 0 0 0 .839.454 1 1 0 0 0 .837-1.546 22.106 22.106 0 0 0-2.656-3.321 1 1 0 1 0-1.426 1.39zm-13.966 33.928h-.372a20.069 20.069 0 0 1-3.479-.3 1 1 0 1 0-.346 1.97 22.163 22.163 0 0 0 3.825.33h.414a1 1 0 0 0-.042-2zm7.522-1.617a19.952 19.952 0 0 1-3.682 1.175 1 1 0 0 0 .209 1.977 1.022 1.022 0 0 0 .211-.022 21.916 21.916 0 0 0 4.054-1.294 1 1 0 1 0-.792-1.838zm10.457-6.246a22.018 22.018 0 0 0 2-3.756 1 1 0 0 0-1.85-.762 20.054 20.054 0 0 1-1.814 3.414 1 1 0 0 0 1.664 1.102zm-4.1 1.9a20.081 20.081 0 0 1-2.966 2.481 1 1 0 0 0 1.131 1.65 22.068 22.068 0 0 0 3.261-2.729 1 1 0 0 0-1.43-1.404zm6.749-14.962a1 1 0 0 0-1 1 20.236 20.236 0 0 1-.383 3.847 1 1 0 0 0 .785 1.175 1.026 1.026 0 0 0 .2.019 1 1 0 0 0 .979-.805 21.946 21.946 0 0 0 .422-4.23 1 1 0 0 0-1.003-1.006zm-28.584 27.889a27.915 27.915 0 0 1-3.555-1.262 1 1 0 1 0-.8 1.835 29.961 29.961 0 0 0 3.811 1.353 1 1 0 0 0 1.233-.693 1 1 0 0 0-.687-1.233zm27.76-7.552a28.16 28.16 0 0 1-2.793 2.538 1 1 0 0 0 1.243 1.567 30.156 30.156 0 0 0 2.991-2.718 1 1 0 1 0-1.439-1.387zm-25.132-46.988a1.083 1.083 0 0 0 .17-.014 28.263 28.263 0 0 1 3.754-.388 1 1 0 0 0-.072-2 30.379 30.379 0 0 0-4.019.415 1 1 0 0 0 .169 1.987zm29.256 13.676c.316.551.62 1.126.9 1.706a1 1 0 0 0 1.8-.874c-.3-.622-.627-1.236-.967-1.828a1 1 0 1 0-1.733.996zm-14.231-12.223a27.858 27.858 0 0 1 3.418 1.6 1 1 0 1 0 .967-1.751 29.981 29.981 0 0 0-3.665-1.709 1 1 0 1 0-.72 1.856zm7.4 4.282a3.942 3.942 0 0 0-.469 1.841 4.014 4.014 0 1 0 1.81-3.34c-.318-.256-.63-.519-.956-.761a1 1 0 1 0-1.191 1.606c.274.209.537.433.809.65zm2.1.454l.012-.008.007-.014a2.407 2.407 0 1 1-.02.018zm7.081 12.787a28.119 28.119 0 0 1 .914 3.659 1 1 0 0 0 .983.824.962.962 0 0 0 .177-.015 1 1 0 0 0 .809-1.16 29.737 29.737 0 0 0-.981-3.924 1 1 0 1 0-1.903.616zm3.323 7.325a1 1 0 0 0-2 .086q.027.589.027 1.189c0 .862-.041 1.73-.118 2.579a1 1 0 0 0 .906 1.087h.092a1 1 0 0 0 1-.91c.083-.908.125-1.836.126-2.759-.006-.423-.015-.851-.034-1.276zm-1.484 6.833a1 1 0 0 0-1.2.75 27.837 27.837 0 0 1-1.094 3.61 1 1 0 0 0 1.872.708 30.079 30.079 0 0 0 1.172-3.869 1 1 0 0 0-.751-1.203zm-2.508 7.384a1 1 0 0 0-1.356.4 28.243 28.243 0 0 1-2.018 3.185 1 1 0 1 0 1.614 1.181 29.952 29.952 0 0 0 2.162-3.413 1 1 0 0 0-.403-1.357zm-23.237-40.8a28.032 28.032 0 0 1 3.722.62 1.034 1.034 0 0 0 .232.027 1 1 0 0 0 .23-1.974 30.051 30.051 0 0 0-3.988-.663 1 1 0 0 0-.197 1.985zm-29.031 37.554a1 1 0 0 0-1.878.692 30.2 30.2 0 0 0 1.654 3.69 1 1 0 1 0 1.766-.937 28.108 28.108 0 0 1-1.543-3.45zm-2.736-10.177h.052a1 1 0 0 0 1-.95 28.2 28.2 0 0 1 .441-3.746 1 1 0 1 0-1.965-.368 30.015 30.015 0 0 0-.474 4.014 1 1 0 0 0 .945 1.045zm16.635-24.741a1 1 0 0 0 .426-.1 27.754 27.754 0 0 1 3.513-1.378 1 1 0 0 0-.6-1.908 29.859 29.859 0 0 0-3.766 1.478 1 1 0 0 0 .426 1.903zm-14.962 31.3a27.8 27.8 0 0 1-.562-3.729 1 1 0 0 0-2 .164 30.139 30.139 0 0 0 .6 4 1 1 0 1 0 1.961-.444zm27.226 21.922a28.236 28.236 0 0 1-3.764-.267 1 1 0 0 0-.275 1.981 30.375 30.375 0 0 0 4.03.286 1 1 0 0 0 .009-2zm-14.362-4.028a28.016 28.016 0 0 1-3.088-2.165 1 1 0 0 0-1.256 1.557 30.219 30.219 0 0 0 3.308 2.319 1 1 0 1 0 1.036-1.711zm-8.266-7.633a1 1 0 1 0-1.623 1.168 30.106 30.106 0 0 0 2.576 3.114 1 1 0 0 0 1.453-1.375 28.352 28.352 0 0 1-2.406-2.907zm3.822-37.314a1 1 0 0 0 .653-.242 28.1 28.1 0 0 1 3.019-2.266 1 1 0 0 0-1.092-1.677 30.421 30.421 0 0 0-3.232 2.427 1 1 0 0 0 .652 1.758zm-8.922 12.775a.99.99 0 0 0 .315.052 1 1 0 0 0 .949-.686 27.733 27.733 0 0 1 1.429-3.49 1 1 0 0 0-1.795-.882 29.786 29.786 0 0 0-1.533 3.742 1 1 0 0 0 .635 1.264zm42.129 32.289a27.956 27.956 0 0 1-3.367 1.7 1 1 0 1 0 .779 1.842 29.864 29.864 0 0 0 3.61-1.827 1 1 0 1 0-1.022-1.712zm-6.935 2.935a27.923 27.923 0 0 1-3.7.738 1 1 0 0 0 .128 1.992 1.148 1.148 0 0 0 .13-.008 29.992 29.992 0 0 0 3.964-.791 1 1 0 0 0-.522-1.928zm-31.442-42.166a1 1 0 0 0 .831-.443 28.4 28.4 0 0 1 2.309-2.984 1 1 0 0 0-1.5-1.327 30.369 30.369 0 0 0-2.473 3.2 1 1 0 0 0 .833 1.554z" transform="translate(-537.031 -280.031)"/></svg>