<svg xmlns="http://www.w3.org/2000/svg" width="512" height="512" viewBox="0 0 512 512"><path d="M426.672 0h-341.33c-46.936 0-85.342 38.407-85.342 85.344v341.313c0 46.969 38.406 85.343 85.342 85.343l341.33-.001c46.938 0 85.328-38.373 85.328-85.344v-341.311c0-46.937-38.391-85.344-85.328-85.344zm8.625 256h-83.297v224h-96v-224h-46.263v-73.282h46.263v-47.593c0-64.671 27.896-103.125 103.936-103.125h87.621v79.285h-71.564c-21.24-.035-23.875 11.076-23.875 31.756l-.118 39.677h96l-12.703 73.282z" fill="#ccc"/></svg>